<?xml version="1.0" standalone="no"?>
<!DOCTYPE svg PUBLIC "-//W3C//DTD SVG 1.1//EN" "http://www.w3.org/Graphics/SVG/1.1/DTD/svg11.dtd" >
<svg xmlns="http://www.w3.org/2000/svg">
<metadata>Generated by IcoMoon</metadata>
<defs>
<font id="icomoon" horiz-adv-x="1024">
<font-face units-per-em="1024" ascent="960" descent="-64" />
<missing-glyph horiz-adv-x="1024" />
<glyph unicode="&#x20;" horiz-adv-x="512" d="" />
<glyph unicode="&#xe900;" glyph-name="activity" d="M554.518 21.333c-16.789 0-31.342 12.144-34.998 29.293l-133.288 625.747-80.063-326.165c-4.054-16.553-18.348-28.137-34.721-28.137h-150.25c-19.838 0-35.865 16.734-35.865 37.407 0 20.655 16.044 37.371 35.865 37.371h122.39l110.366 449.644c4.089 16.77 18.643 28.914 35.293 28.137 16.616-0.289 30.823-12.433 34.444-29.293l128.956-605.309 65.821 343.983c3.015 15.776 15.403 27.775 30.684 29.781 15.368 2.078 30.078-6.361 36.783-20.854l79.041-171.223h137.827c19.838 0 35.865-16.734 35.865-37.407 0-20.655-16.044-37.371-35.865-37.371h-160.368c-13.774 0-26.335 8.222-32.278 21.179l-42.327 91.62-78.14-408.298c-3.309-17.366-17.794-29.89-34.79-30.106h-0.381z" />
<glyph unicode="&#xe901;" glyph-name="add" d="M554.667 490.667h170.561c23.622 0 42.772-18.938 42.772-42.667 0-23.564-19.446-42.667-42.772-42.667h-170.561v-170.561c0-23.622-18.938-42.772-42.667-42.772-23.564 0-42.667 19.446-42.667 42.772v170.561h-170.561c-23.622 0-42.772 18.938-42.772 42.667 0 23.564 19.446 42.667 42.772 42.667h170.561v170.561c0 23.622 18.938 42.772 42.667 42.772 23.564 0 42.667-19.446 42.667-42.772v-170.561zM938.667 448c0 235.641-191.025 426.667-426.667 426.667s-426.667-191.025-426.667-426.667c0-235.641 191.025-426.667 426.667-426.667s426.667 191.025 426.667 426.667z" />
<glyph unicode="&#xe902;" glyph-name="arrowBot" d="M836.44 673.939l93.65-93.65-422.378-422.378-422.378 422.378 93.65 93.65 328.728-328.728 328.728 328.728z" />
<glyph unicode="&#xe903;" glyph-name="arrowLeft" d="M729.362 123.56l-93.65-93.65-422.378 422.378 422.378 422.378 93.65-93.65-328.728-328.728 328.728-328.728z" />
<glyph unicode="&#xe904;" glyph-name="arrowRight" d="M286.061 781.016l93.65 93.65 422.378-422.378-422.378-422.378-93.65 93.65 328.728 328.728-328.728 328.728z" />
<glyph unicode="&#xe905;" glyph-name="arrowTop" d="M178.984 230.638l-93.65 93.65 422.378 422.378 422.378-422.378-93.65-93.65-328.728 328.728-328.728-328.728z" />
<glyph unicode="&#xe906;" glyph-name="audioFile" d="M512 874.667c-235.649 0-426.667-181.929-426.667-406.343 0-22.442 19.105-40.637 42.67-40.637 23.555 0 42.66 18.185 42.66 40.637 0 179.53 152.828 325.078 341.337 325.078s341.337-145.549 341.337-325.078c0-22.442 19.105-40.637 42.66-40.637 23.565 0 42.67 18.185 42.67 40.637 0 224.415-191.028 406.343-426.667 406.343zM170.663 21.343h88.007c22.091 0 40.002 17.057 40.002 38.096v248.886c0 21.039-17.91 38.106-40.002 38.106h-88.007c0 22.433-19.105 40.628-42.66 40.628-23.565 0-42.67-18.195-42.67-40.628v-162.549c0-89.77 38.2-162.539 85.329-162.539zM895.997 387.049c-23.555 0-42.66-18.195-42.66-40.628h-88.007c-22.091 0-40.002-17.066-40.002-38.106v-248.886c0-21.039 17.91-38.096 40.002-38.096h88.007c47.12 0 85.329 72.77 85.329 162.539v162.549c0 22.433-19.105 40.628-42.67 40.628z" />
<glyph unicode="&#xe907;" glyph-name="checked" d="M459.882 276.124c-10.655 0.234-21.254 4.428-29.403 12.577l-127.97 127.97c-16.732 16.732-16.904 43.687-0.126 60.466 16.662 16.662 43.731 16.609 60.466-0.126l99.557-99.557 212.889 212.889c16.586 16.586 43.422 16.64 60.201-0.139 16.662-16.662 16.423-43.917 0.139-60.201l-241.637-241.637c-9.332-9.332-21.91-13.431-34.115-12.242v0zM512 21.333c235.641 0 426.667 191.025 426.667 426.667s-191.025 426.667-426.667 426.667c-235.641 0-426.667-191.025-426.667-426.667s191.025-426.667 426.667-426.667v0z" />
<glyph unicode="&#xe908;" glyph-name="clients" d="M576.62 405.931c18.118 18.159 30.602 40.482 34.339 53.675 2.452 8.487 4.185 17.425 5.305 24.152 7.698 3.566 13.651 9.615 16.869 17.222 4.538 10.992 7.002 34.591 7.037 35.618 1.992 18.712-4.904 29.535-5.54 30.144 8.004 75.897-17.329 90.851-34.209 93.525-6.012 0.993-15.101 3.115-19.12 7.449-9.489 9.999-13.686 21.104-30.036 20.202-6-0.305-14.181 1.49-18.802 5.203-6.283 5.045-14.912 10.879-21.242 10.879-6.307 0-14.24-5.632-19.969-10.563-4.562-3.905-12.531-5.835-18.543-5.519-16.362 0.903-20.547-10.202-30.013-20.202-4.055-4.345-13.132-6.455-19.132-7.449-16.928-2.675-42.249-17.64-34.221-93.57-0.695-0.7-7.497-11.523-5.54-30.088 0.071-1.038 2.523-24.648 7.061-35.629 3.265-7.618 9.136-13.656 16.869-17.222 1.132-6.726 2.865-15.755 5.269-24.152 3.878-13.509 16.527-36.284 34.881-54.533h-0.401c-2.546-105.567-233.935-47.152-184.578-236.765 15.714-53.675 218.009-63.483 249.153-61.383 31.038-2.099 233.287 7.719 249.036 61.383 49.31 189.432-181.443 132.382-184.472 237.622zM858.462 469.898c15.672 16.855 26.483 37.576 29.717 49.837 2.092 7.874 3.604 16.171 4.565 22.404 6.668 3.323 11.836 8.927 14.605 16.008 3.921 10.208 6.066 32.135 6.098 33.080 1.723 17.398-4.248 27.422-4.808 27.986 6.922 70.471-14.975 84.372-29.601 86.859-5.189 0.923-13.062 2.9-16.539 6.918-8.19 9.274-11.836 19.602-25.976 18.777-5.168-0.304-12.28 1.368-16.243 4.811-5.474 4.692-12.914 10.089-18.388 10.089s-12.333-5.224-17.3-9.785c-3.931-3.627-10.811-5.419-16.042-5.115-14.129 0.825-17.775-9.492-25.966-18.777-3.487-4.029-11.318-5.995-16.539-6.918-14.616-2.487-36.534-16.388-29.601-86.902-0.602-0.652-6.489-10.686-4.798-27.943 0.063-0.945 2.198-22.86 6.098-33.080 2.843-7.070 7.915-12.685 14.616-16.008 0.972-6.234 2.462-14.628 4.555-22.404 3.329-12.543 14.288-33.71 30.161-50.64h-0.338c-1.173-52.715-59.604-61.414-106.737-85.545 6.013-11.088 21.686-19.287 53.939-32.863 50.716-21.307 124.956-52.563 113.373-158.644 38.013-0.825 197.738 9.655 210.705 57.189 42.684 175.9-156.935 122.936-159.556 220.665zM329.832 350.065c32.899 13.651 48.478 21.85 54.168 33.242-47.149 24.315-105.886 32.884-107.090 85.793h-0.338c15.864 16.931 26.799 38.096 30.134 50.64 2.069 7.787 3.589 16.17 4.549 22.404 6.681 3.323 11.748 8.927 14.608 16.007 3.895 10.208 6.027 32.134 6.069 33.079 1.689 17.256-4.19 27.302-4.781 27.942 6.945 70.513-14.956 84.403-29.564 86.901-5.193 0.923-13.046 2.889-16.518 6.918-8.191 9.274-11.832 19.602-25.933 18.777-5.225-0.304-12.096 1.488-16.033 5.115-4.961 4.561-11.811 9.785-17.257 9.785-5.499 0-12.93-5.397-18.365-10.089-3.979-3.443-11.072-5.126-16.223-4.811-14.133 0.825-17.785-9.492-25.965-18.777-3.473-4.018-11.336-5.995-16.518-6.918-14.608-2.487-36.478-16.388-29.564-86.857-0.528-0.565-6.502-10.599-4.781-27.986 0.042-0.945 2.153-22.86 6.069-33.079 2.797-7.070 7.927-12.684 14.587-16.007 0.96-6.234 2.47-14.541 4.581-22.404 3.219-12.261 13.996-32.981 29.691-49.836-2.649-97.728-202.020-44.764-159.378-220.672 12.961-47.523 172.435-58.002 210.422-57.188-11.579 106.123 62.717 136.975 113.433 158.022z" />
<glyph unicode="&#xe909;" glyph-name="close" d="M938.971 96.824l-75.187-75.187-351.784 351.784-351.784-351.784-75.187 75.187 351.48 351.48-350.871 350.871 75.187 75.187 351.176-351.176 351.176 351.176 75.187-75.187-350.871-350.871 351.48-351.48z" />
<glyph unicode="&#xe90a;" glyph-name="comment" d="M896 490.135c0 212.363-171.887 384.532-383.985 384.532-212.108 0-384.015-172.168-384.015-384.532 0-207.794 164.608-376.943 370.375-384.132 29.537-28.796 125.156-109.936 233.397-76.89 0 0 32.213 8.829 15.038 35.206-10.864 16.688-32.522 54.363-47.4 90.199 117.267 65.792 196.591 191.446 196.591 335.618z" />
<glyph unicode="&#xe90b;" glyph-name="commentAdd" d="M620.585 121.361l-29.423 70.87 66.654 37.396c93.64 52.536 152.754 151.363 152.754 260.508 0 164.788-133.555 298.542-298.555 298.542-165.014 0-298.585-133.758-298.585-298.542 0-160.775 127.454-292.588 287.909-298.194l32.858-1.148 23.616-23.024c45.033-43.905 62.773-46.408 62.773-46.408v0zM896 490.135c0-144.172-79.323-269.826-196.591-335.618 14.878-35.835 36.536-73.511 47.4-90.199 17.175-26.377-15.038-35.206-15.038-35.206-108.241-33.046-203.86 48.094-233.397 76.89-205.767 7.189-370.375 176.338-370.375 384.132 0 212.363 171.907 384.532 384.015 384.532 212.098 0 383.985-172.168 383.985-384.532v0zM555.149 616.593c0 23.506-19.124 43.101-42.715 43.101-23.755 0-42.715-19.297-42.715-43.101v-85.883h-85.324c-23.353 0-42.821-19.249-42.821-42.995 0-23.911 19.171-42.995 42.821-42.995h85.324v-85.883c0-23.506 19.124-43.101 42.715-43.101 23.755 0 42.715 19.297 42.715 43.101v85.883h85.324c23.353 0 42.821 19.249 42.821 42.995 0 23.911-19.171 42.995-42.821 42.995h-85.324v85.883z" />
<glyph unicode="&#xe90c;" glyph-name="date" d="M810.667 746.667v85.342c0 23.727-19.083 42.658-42.622 42.658h-42.756c-23.735 0-42.622-19.099-42.622-42.658v-85.342h-341.333v85.342c0 23.727-19.083 42.658-42.622 42.658h-42.756c-23.735 0-42.622-19.099-42.622-42.658v-85.342h-85.683c-22.891 0-42.317-19.102-42.317-42.665v-640.003c0-23.264 18.946-42.665 42.317-42.665h768.699c22.891 0 42.317 19.102 42.317 42.665v640.003c0 23.264-18.946 42.665-42.317 42.665h-85.683zM170.667 448.105c0 23.506 18.971 42.562 42.704 42.562h597.259c23.585 0 42.704-19.043 42.704-42.562v-298.876c0-23.506-18.971-42.562-42.704-42.562h-597.259c-23.585 0-42.704 19.043-42.704 42.562v298.876z" />
<glyph unicode="&#xe90d;" glyph-name="dateBooked" d="M413.045 149.674c-17.865 0.397-35.637 7.514-49.3 21.342l-214.569 217.159c-28.054 28.393-28.344 74.135-0.211 102.607 27.938 28.275 73.324 28.185 101.383-0.214l166.928-168.944 356.952 361.261c27.809 28.145 72.807 28.237 100.939-0.236 27.938-28.275 27.536-74.525 0.233-102.158l-405.155-410.046c-15.648-15.836-36.737-22.791-57.201-20.773v0z" />
<glyph unicode="&#xe90e;" glyph-name="dateWish" d="M938.667 563.217c0 124.882-103.174 226.116-230.443 226.116-83.105 0-155.681-43.308-196.226-108.029-40.54 64.722-113.148 108.029-196.25 108.029-127.269 0-230.414-101.234-230.414-226.116 0-67.992 30.705-128.82 79.097-170.243l326.539-320.428c5.577-5.472 13.14-8.546 21.029-8.546s15.452 3.074 21.029 8.546l326.539 320.428c48.394 41.423 79.102 102.252 79.102 170.243v0z" />
<glyph unicode="&#xe90f;" glyph-name="demandes" d="M700.964 832c-23.36 0-30.75-14.683-15.848-33.63l74.218-94.37h-674v-85.333h674l-75.783-105.041c-13.743-19.049-5.997-34.491 17.413-34.491h29.389c11.955 0 28.737 6.701 36.923 14.438l140.567 132.86c17.024 16.090 16.794 42.395 0 58.268l-140.567 132.86c-8.437 7.974-24.566 14.438-36.923 14.438h-29.389zM323.036 64c23.36 0 30.75 14.683 15.848 33.63l-74.218 94.37h665.893l8.107 7.69v77.643h-674l75.783 105.041c13.743 19.049 5.997 34.491-17.413 34.491h-29.389c-11.955 0-28.737-6.701-36.923-14.438l-140.567-132.86c-17.024-16.090-16.794-42.395 0-58.268l140.567-132.86c8.437-7.974 24.566-14.438 36.923-14.438h29.389z" />
<glyph unicode="&#xe910;" glyph-name="display" d="M42.667 789.333v-548.552h375.467v-45.719h-187.733v-45.729h563.2v45.729h-187.733v45.719h375.467v548.552h-938.667zM128 704h768v-384h-768v384z" />
<glyph unicode="&#xe911;" glyph-name="dl" d="M682.667 831.875c0 23.633-19.33 42.792-42.54 42.792h-256.253c-23.494 0-42.54-18.683-42.54-42.792v-255.875h-170.675c-23.56 0-29.44-13.752-13.164-30.686l354.506-368.829 354.506 368.829c16.289 16.947 10.562 30.686-13.164 30.686h-170.675v255.875zM853.615 106.667c23.409 0 42.385-18.938 42.385-42.667v0c0-23.564-18.984-42.667-42.385-42.667h-683.23c-23.409 0-42.385 18.938-42.385 42.667v42.667h725.615z" />
<glyph unicode="&#xe912;" glyph-name="doublage" d="M170.667 446.805c0-152.946 127.444-279.476 293.066-300.345v-125.127h96.535v125.127c165.632 20.869 293.066 147.399 293.066 300.345h-86.195c0-125.222-114.227-226.901-255.134-226.901-140.917 0-255.144 101.679-255.144 226.901h-86.195zM367.197 741.964v-298.752c0-73.5 63.927-132.712 144.808-132.712 80.871 0 144.808 59.212 144.808 132.712v298.752c0 73.5-63.937 132.703-144.808 132.703-80.881 0-144.808-59.202-144.808-132.703v0z" />
<glyph unicode="&#xe913;" glyph-name="edit" d="M108.028 191.316l-22.695-169.983h158.985l536.222 540.322-152.571 154.104-519.942-524.444zM708.357 796.273c-8.23-8.318-8.23-21.917 0-30.235l122.724-123.869c8.23-8.318 21.723-8.318 29.953 0l71.461 72.145c8.23 8.318 8.23 21.917 0 30.235l-122.713 123.88c-8.23 8.318-21.723 8.318-29.953 0l-71.472-72.155z" />
<glyph unicode="&#xe914;" glyph-name="equalizer" d="M85.333 106.667h256v128h-256v-128zM682.667 277.333h256v128h-256v-128zM384 448h256v128h-256v-128zM384 618.667h256v128h-256v-128zM384 277.333h256v128h-256v-128zM85.333 448h256v128h-256v-128zM85.333 277.333h256v128h-256v-128zM682.667 106.667h256v128h-256v-128zM384 106.667h256v128h-256v-128z" />
<glyph unicode="&#xe915;" glyph-name="fav" d="M470.717 241.782l41.283 22.821 41.283-22.821 110.925-67.035-30.029 184.092 30.076 30.825 105.778 98.499-184.086 28.126-19.347 41.219-55.215 115.015-73.332-156.234-45.012-6.877-129.245-21.408 126.024-129.165-29.761-182.448 110.657 65.391zM512 167.1l-263.695-145.767 50.361 308.739-213.333 218.65 294.819 45.044 131.847 280.9 131.847-280.9 294.819-45.044-213.333-218.65 50.361-308.739-263.695 145.767z" />
<glyph unicode="&#xe916;" glyph-name="faved" d="M512 167.1l-263.695-145.767 50.361 308.739-213.333 218.65 294.819 45.044 131.847 280.9 131.847-280.9 294.819-45.044-213.333-218.65 50.361-308.739z" />
<glyph unicode="&#xe917;" glyph-name="flag" d="M231.52 93.544c0-16.333-13.625-29.544-30.427-29.544s-30.427 13.211-30.427 29.544v708.913c0 16.314 13.625 29.544 30.427 29.544s30.427-13.23 30.427-29.544v-708.913zM810.667 456.547c0 0-41.033-34.388-117.875-34.388-107.965 0-168.897 69.347-287.997 69.347-99.848 0-141.705-41.022-141.705-41.022v340.475c0 0 39.798 41.041 139.627 41.041 119.11 0 182.12-69.357 290.075-69.357 76.851 0 117.875 34.398 117.875 34.398v-340.494z" />
<glyph unicode="&#xe918;" glyph-name="format" d="M128 832h768v-85.105h-84.992v-85.105h84.992v-427.578h-84.992v-85.105h84.992v-85.105h-768v85.105h84.992v85.105h-84.992v427.578h84.992v85.105h-84.992v85.105zM640 661.789h84.992v85.105h-84.992v-85.105zM470.016 661.789h84.992v85.105h-84.992v-85.105zM299.008 661.789h84.992v85.105h-84.992v-85.105zM640 149.105h84.992v85.105h-84.992v-85.105zM470.016 149.105h84.992v85.105h-84.992v-85.105zM299.008 149.105h84.992v85.105h-84.992v-85.105z" />
<glyph unicode="&#xe919;" glyph-name="infos" d="M938.667 448c0 235.641-191.025 426.667-426.667 426.667s-426.667-191.025-426.667-426.667c0-235.641 191.025-426.667 426.667-426.667s426.667 191.025 426.667 426.667zM512 576c-23.564 0-42.667 19.103-42.667 42.667s19.103 42.667 42.667 42.667c23.564 0 42.667-19.103 42.667-42.667s-19.103-42.667-42.667-42.667zM469.333 490.542c0 23.633 18.938 42.792 42.667 42.792 23.564 0 42.667-18.683 42.667-42.792v-213.083c0-23.633-18.938-42.792-42.667-42.792-23.564 0-42.667 18.683-42.667 42.792v213.083z" />
<glyph unicode="&#xe91a;" glyph-name="key" d="M682.667 533.333c-47.121 0-85.333 38.212-85.333 85.333s38.212 85.333 85.333 85.333c47.121 0 85.333-38.212 85.333-85.333s-38.212-85.333-85.333-85.333zM682.667 874.667c-141.38 0-256-114.62-256-256v-85.333l-341.333-341.333v-170.667h170.667v85.333h85.333v85.333h85.333v85.333h85.333v85.333h170.667c141.38 0 256 114.62 256 256s-114.62 256-256 256z" />
<glyph unicode="&#xe91b;" glyph-name="link" d="M784.862 644.246l31.945 31.945c19.438 19.438 18.055 52.344-3.111 73.511-21.153 21.153-54.073 22.562-73.518 3.118l-31.945-31.945c-80.28 49.008-182.159 42.884-246.389-21.347l-48.28-48.28c-19.438-19.438-18.048-52.351 3.118-73.518 21.153-21.153 54.073-22.562 73.518-3.118l48.28 48.28c37.592 37.592 101.466 34.889 142.381-6.026 40.922-40.922 43.638-104.796 6.040-142.394l-48.28-48.28c-19.438-19.438-18.042-52.358 3.118-73.518s54.073-22.562 73.518-3.118l48.28 48.28c64.224 64.237 70.335 166.13 21.326 246.41zM602.836 313.787c-21.16 21.16-54.067 22.569-73.518 3.118l-48.28-48.28c-37.592-37.592-101.459-34.883-142.388 6.046-40.915 40.915-43.624 104.783-6.032 142.374l48.28 48.28c19.45 19.45 18.042 52.358-3.118 73.518-21.167 21.167-54.067 22.569-73.518 3.118l-48.28-48.28c-64.23-64.23-70.349-166.103-21.341-246.383l-27.464-27.464c-19.438-19.438-18.048-52.364 3.112-73.524 21.167-21.167 54.079-22.543 73.517-3.105l27.464 27.464c80.281-49.022 182.166-42.904 246.397 21.327l48.28 48.28c19.457 19.444 18.048 52.351-3.111 73.511zM447.771 307.156l200.604 200.604c19.432 19.432 18.055 52.344-3.111 73.511-21.153 21.153-54.080 22.556-73.518 3.118l-200.604-200.604c-19.45-19.45-18.054-52.37 3.106-73.53 21.167-21.167 54.073-22.549 73.523-3.099z" />
<glyph unicode="&#xe91c;" glyph-name="loc" d="M511.992 448c-70.677 0-127.992 57.32-127.992 128 0 70.687 57.315 128 127.992 128 70.692 0 128.008-57.305 128.008-128 0-70.672-57.315-128-128.008-128zM511.996 874.667c-171.111 0-298.663-160.849-298.663-346.669 0-235.632 298.663-506.665 298.663-506.665s298.671 271.032 298.671 506.665c0 183.32-127.56 346.669-298.671 346.669z" />
<glyph unicode="&#xe91d;" glyph-name="people" d="M138.351 109.356c23.586-76.658 327.038-90.672 373.743-87.647 46.559-3.015 349.949 10.989 373.525 87.647 74.035 270.716-272.066 189.118-276.621 339.533 27.154 25.96 45.935 57.866 51.541 76.658 3.65 12.042 6.261 24.88 7.904 34.541 11.523 5.044 20.446 13.672 25.292 24.567 6.833 15.682 10.556 49.475 10.618 50.906 2.891 26.757-7.373 42.098-8.299 42.989 12.022 108.45-26.041 129.849-51.354 133.699-8.996 1.365-22.619 4.447-28.734 10.591-14.185 14.279-20.456 30.17-44.989 28.881-9.058-0.474-21.319 2.114-28.277 7.452-9.38 7.178-22.286 15.493-31.885 15.493-9.412 0-21.267-8.021-29.941-15.076-6.76-5.528-18.751-8.344-27.84-7.87-24.481 1.289-30.804-14.602-44.989-28.89-6.084-6.144-19.718-9.235-28.703-10.591-25.334-3.84-63.396-25.249-51.354-133.756-1.071-0.901-11.18-16.403-8.33-42.913 0.094-1.441 3.775-35.233 10.628-50.916 4.867-10.885 13.728-19.522 25.261-24.567 1.716-9.681 4.285-22.528 7.914-34.541 5.813-19.323 24.793-51.873 52.331-77.948l-0.541-0.009c-3.889-150.813-350.916-67.347-276.902-338.234z" />
<glyph unicode="&#xe91e;" glyph-name="product" d="M170.667 874.667v-853.333h725.333v641.354l-206.179 211.979h-519.154zM282.256 274.667h502.154v-40h-502.154v40zM352 181.333h362.667v-40h-362.667v40zM449.641 408v200l181.333-100-181.333-100z" />
<glyph unicode="&#xe91f;" glyph-name="projects" d="M85.333 789.333v-682.667h853.333v624.64h-504.676l-28.444 58.027h-320.213zM482.745 702.293h427.477v-72.533h-376.676l-50.802 72.533z" />
<glyph unicode="&#xe920;" glyph-name="refresh" d="M805.333 668.444l-176-241.778h117.333c0-134.187-104.427-241.778-234.667-241.778v-120.889c193.6 0 352 163.2 352 362.667h117.333l-176 241.778zM512 832c-193.6 0-352-163.2-352-362.667h-117.333l176-241.778 176 241.778h-117.333c0 134.187 104.427 241.778 234.667 241.778v120.889z" />
<glyph unicode="&#xe921;" glyph-name="search" d="M426.668 305.778c-125.679 0-227.556 101.877-227.556 227.556s101.877 227.556 227.556 227.556c125.679 0 227.556-101.877 227.556-227.556s-101.877-227.556-227.556-227.556zM922.001 118.454l-217.282 217.27c39.788 55.819 63.283 124.006 63.283 197.609 0 188.211-153.123 341.333-341.334 341.333s-341.334-153.122-341.334-341.333c0-188.211 153.123-341.333 341.334-341.333 73.603 0 141.79 23.495 197.61 63.283l217.282-217.281c11.093-11.116 25.668-16.668 40.221-16.668s29.127 5.552 40.221 16.657c22.221 22.221 22.221 58.243 0 80.464z" />
<glyph unicode="&#xe922;" glyph-name="settings" d="M517.96 224.272c-126.798 0-229.573 102.773-229.573 229.568s102.775 229.568 229.573 229.568c126.798 0 229.573-102.773 229.573-229.568s-102.775-229.568-229.573-229.568zM859.547 397.201l79.12 33.297c-4.628 53.352-4.445 51.24-9.054 104.591l-83.675 19.21c-15.17 32.617-21.562 46.336-36.732 78.953l39.211 76.364c-37.834 37.906-36.328 36.4-74.161 74.307l-76.494-39.082c-32.581 15.225-46.3 21.635-78.881 36.86l-19.064 83.728c-53.334 4.72-51.241 4.536-104.575 9.238l-33.463-79.1c-34.748-9.275-49.367-13.186-84.116-22.461l-68.45 51.901c-43.894-30.689-42.15-29.477-86.044-60.147l25.198-82.057c-20.662-29.44-29.349-41.837-50.010-71.276l-85.769-4.242c-13.903-51.717-13.352-49.66-27.255-101.377l72.049-46.648c3.104-35.831 4.408-50.909 7.512-86.758l-62.958-58.347c22.59-48.558 21.69-46.63 44.28-95.188l85.218 10.579c25.4-25.455 36.107-36.162 61.507-61.616l-10.726-85.179c48.504-22.681 46.594-21.781 95.098-44.463l58.514 62.883c35.813-3.159 50.91-4.5 86.724-7.658l46.576-72.176c51.737 13.811 49.698 13.278 101.435 27.089l4.389 85.748c29.477 20.606 41.893 29.275 71.37 49.881l82.059-25.344c30.744 43.838 29.532 42.112 60.295 85.95l-51.755 68.485c9.348 34.711 13.279 49.33 22.627 84.059z" />
<glyph unicode="&#xe923;" glyph-name="sound" d="M511.996 106.667c-94.259 0-170.663 76.412-170.663 170.671s76.403 170.663 170.663 170.663c94.259 0 170.671-76.403 170.671-170.663s-76.412-170.671-170.671-170.671zM512 746.667c47.123 0 85.333-38.211 85.333-85.333s-38.211-85.333-85.333-85.333c-47.135 0-85.333 38.211-85.333 85.333 0 47.135 38.198 85.333 85.333 85.333zM512 362.667c47.123 0 85.333-38.211 85.333-85.333s-38.211-85.333-85.333-85.333c-47.135 0-85.333 38.211-85.333 85.333 0 47.135 38.198 85.333 85.333 85.333zM750.67 874.667h-477.339c-33.132 0-59.997-27.553-59.997-61.535v-730.264c0-33.982 26.865-61.535 59.997-61.535h477.339c33.132 0 59.997 27.553 59.997 61.535v730.264c0 33.982-69.531 61.535-102.664 61.535z" />
<glyph unicode="&#xe924;" glyph-name="tech" d="M283.295 515.973c28.433 2.816 56.865-8.449 78.19-29.573l36.962-36.614 39.806 39.43-49.757 49.288c-8.53 8.449-8.53 22.532 0 32.389 8.53 8.449 22.746 8.449 32.697 0l49.757-49.288 39.806 39.43-31.276 30.981c-21.324 21.123-32.697 52.104-29.854 83.085 5.687 52.104-11.373 107.025-51.179 147.864-46.914 46.471-115.152 61.962-174.86 45.063-7.108-1.408-9.951-11.266-4.265-16.899l71.081-70.411c21.324-21.123 21.324-56.329 0-78.861l-34.119-35.206c-21.324-21.123-56.865-21.123-79.611 0l-66.817 66.187c-5.687 5.633-15.638 2.816-17.060-4.225-11.373-56.329 4.265-118.291 48.335-161.946 39.806-38.022 92.406-54.921 142.163-50.696zM799.347 130.119l-241.677 240.807-39.806-39.43 250.207-247.848c31.276-30.981 81.033-30.981 110.887 0 31.276 30.981 31.276 80.269 0 109.842l-250.207 247.848-39.806-39.43 243.099-240.807c8.53-8.449 8.53-22.532 0-32.389-8.53-7.041-22.746-7.041-32.697 1.408zM118.386 54.075c-44.071 43.655-44.071 114.066 0 157.721l210.401 207.009 52.6-52.104 290.012 287.278v105.617l213.244 105.617 54.022-52.104-106.622-211.234h-106.622l-291.434-287.278 52.6-52.104-208.98-208.417c-44.071-43.655-115.152-43.655-159.223 0z" />
<glyph unicode="&#xe925;" glyph-name="timer" d="M534.051 874.483c-0.896 0.092-1.792 0.184-2.688 0.184-23.834 0-40.32-19.773-40.32-44.171 0-24.040 9.139-43.584 44.979-44.089v-0.138c170.231-2.386 319.137-151.297 319.137-334.066 0-184.237-147.741-336.268-327.649-336.268-171.709 0-314.254 132.68-326.807 306.998h75.757l-116.919 199.047-116.874-199.056h71.68c12.669-220.197 192.488-395.258 411.73-395.258 227.485 0 412.59 190.477 412.59 423.474 0 230.207-180.813 418.987-404.616 423.345zM527.51 237.685c14.246 0 25.894-11.837 25.894-26.518 0-14.69-11.648-26.518-25.894-26.518-14.291 0-25.894 11.827-25.894 26.518 0.009 14.681 11.612 26.518 25.894 26.518zM698.548 638.266c14.336 0 25.894-11.882 25.894-26.518s-11.558-26.472-25.894-26.472c-14.246 0-25.805 11.837-25.805 26.472s11.558 26.518 25.805 26.518zM698.548 320.349c14.336 0 25.894-11.928 25.894-26.518s-11.558-26.527-25.894-26.527c-14.246 0-25.805 11.937-25.805 26.527s11.558 26.518 25.805 26.518zM756.071 476.325c14.336 0 25.894-11.837 25.894-26.472s-11.558-26.518-25.894-26.518c-14.345 0-25.805 11.882-25.805 26.518s11.469 26.472 25.805 26.472zM571.862 668.729c0 20.783-16.298 38.629-36.548 38.629h-7.894c-20.25 0-36.189-17.847-36.189-38.629v-222.087l-106.221-108.584c-15.68-16.057-14.874-42.116-0.045-58.082 14.874-16.149 40.938-16.149 56.618 0l117.376 120.201c0.896 1.009 1.613 2.019 2.509 2.936 6.451 6.836 10.385 16.103 10.385 26.334v239.282h0.009z" />
<glyph unicode="&#xe926;" glyph-name="trash" d="M298.919 534.553h79.718v-390.242c0-20.141-17.878-36.425-39.859-36.425s-39.845 16.284-39.845 36.425v390.242h-0.014zM465.264 534.553h79.832v-390.242c0-20.141-17.864-36.425-39.916-36.425s-39.916 16.284-39.916 36.425v390.242zM630.426 534.553h79.775v-390.242c0-20.141-17.892-36.425-39.816-36.425-22.066 0-39.944 16.284-39.944 36.425v390.242h-0.014zM222.107 92.438c0-28.792 23.035-52.123 51.44-52.123h463.093c28.519 0 51.54 23.317 51.54 52.123v536.47h-566.073v-536.47zM788.067 818.894h-202.015v29.719c0 0-0.912 26.054-26.639 26.054h-110.331c-25.699 0-24.816-26.054-24.816-26.054v-29.719h-202.144c-28.391 0-51.455-23.361-51.455-52.152v-85.723h668.883v85.723c-0.014 28.792-23.063 52.152-51.483 52.152v0z" />
<glyph unicode="&#xe927;" glyph-name="videoFile" d="M110.522 157.591v70.194h90.474v-93.591h-67.855c-12.44 0-22.618 10.529-22.618 23.398v0zM133.141 719.14h67.855v-93.591h-90.474v70.194c0 12.869 10.178 23.398 22.618 23.398v0zM823.004 134.194v93.591h90.474v-70.182c0-12.927-10.077-23.398-22.562-23.398-26.667 0-67.482 0.012-67.912-0.012v0zM822.914 297.978v93.591h90.474v-93.591c0 0-89.841 0.035-90.474 0v0zM822.914 461.763v93.591h90.474v-93.591c0 0-89.841 0.035-90.474 0v0zM822.914 625.548v93.591h67.855c12.497 0 22.618-10.471 22.618-23.398v-70.194c0 0-89.841 0.035-90.474 0v0zM268.851 134.194v584.946h487.711v-584.946h-487.711zM110.522 297.978v93.591h90.474v-93.591h-90.474zM110.522 461.763v93.591h90.474v-93.591h-90.474zM900.936 789.333h-777.872c-44.332 0-80.397-36.419-80.397-81.179v-562.964c0-44.772 36.065-81.191 80.397-81.191h777.883c44.321 0 80.386 36.419 80.386 81.179v562.976c0 44.76-36.065 81.179-80.397 81.179zM624.153 435.926l-146.941 109.011c-11.253 8.341-26.916 0.023-26.916-14.296v-218.021c0-14.319 15.663-22.637 26.916-14.296l146.941 109.011c9.455 7.019 9.455 21.573 0 28.592z" />
<glyph unicode="&#xe928;" glyph-name="checkbox_checked" d="M493.708 229.665c16.586-16.586 43.75-16.313 60.2 0.138l437.204 437.204c25.137 25.137 25.428 65.602 0.261 90.77v0c-24.994 24.994-65.627 24.883-90.457 0.053l-377.177-377.177-165.884 165.884c-25.021 25.021-65.392 25.218-90.56 0.051v0c-24.994-24.994-24.991-65.519-0.087-90.422l226.5-226.5zM523.589 106.667l32.608-4.863 4.863 4.863h249.569c23.733 0 42.704 19.119 42.704 42.704v249.569l85.333 85.333v-377.999c0-46.911-38.324-84.941-84.941-84.941h-683.452c-46.911 0-84.941 38.324-84.941 84.941v683.452c0 46.911 38.324 84.941 84.941 84.941h683.452c15.225 0 29.515-4.037 41.872-11.084l-75.334-75.334c-3.096 0.709-6.322 1.084-9.635 1.084h-597.259c-23.733 0-42.704-19.119-42.704-42.704v-597.259c0-23.733 19.119-42.704 42.704-42.704h310.219z" />
<glyph unicode="&#xe929;" glyph-name="checkbox" d="M170.667 789.726v0-683.452c0 0.364-0.029 0.393-0.393 0.393h683.452c-0.364 0-0.393-0.029-0.393-0.393v683.452c0-0.364 0.029-0.393 0.393-0.393h-683.452c0.364 0 0.393 0.029 0.393 0.393v0zM85.333 789.726c0 46.911 38.324 84.941 84.941 84.941h683.452c46.911 0 84.941-38.324 84.941-84.941v-683.452c0-46.911-38.324-84.941-84.941-84.941h-683.452c-46.911 0-84.941 38.324-84.941 84.941v683.452z" />
</font>
</defs>
</svg>
