<svg width="50" height="59.99999999999999" xmlns="http://www.w3.org/2000/svg" xmlns:xlink="http://www.w3.org/1999/xlink">
 <!-- Generator: Sketch 39.1 (31720) - http://www.bohemiancoding.com/sketch -->
 <title>logo-bw2</title>
 <desc>Created with Sketch.</desc>
 <style>.path {
          -ms-animation: transparency 3s linear, scale 1s linear;
          -ms-animation-iteration-count: infinite;
          -ms-animation-direction: alternate;
          -ms-transform-origin: bottom;
          -webkit-animation: transparency 3s linear, scale 1s linear;
          -webkit-animation-iteration-count: infinite;
          -webkit-animation-direction: alternate;
          -webkit-transform-origin: bottom;
          -moz-animation: transparency 3s linear, scale 1s linear;
          -moz-animation-iteration-count: infinite;
          -moz-animation-direction: alternate;
          -moz-transform-origin: bottom;
          animation: transparency 3s linear, scale 1s linear;
          animation-iteration-count: infinite;
          animation-direction: alternate;
          transform-origin: bottom;
        }

        @keyframes oscillation {
        0%   {transform: rotate(-1deg)}
          20%  {transform: rotate(.5deg);}
          40%  {transform: rotate(-.5deg)}
          60%  {transform: rotate(1deg)}
          80%  {transform: rotate(-2deg)}
          100% { transform: rotate(1.5deg);}

        }
        @-moz-keyframes scale {
            0%   {-ms-transform: scaleX(0.96); -webkit-transform: scaleX(0.96); -moz-transform: scaleX(0.96); transform: scaleX(0.96); }
            40%  {-ms-transform: scaleY(0.96); -webkit-transform: scaleY(0.96); -moz-transform: scaleY(0.96); transform: scaleY(0.96); }
            60%  {-ms-transform: scaleX(1.02); -webkit-transform: scaleX(1.02); -moz-transform: scaleX(1.02); transform: scaleX(1.02); }
            80%  {-ms-transform: scaleY(1.04); -webkit-transform: scaleY(1.04); -moz-transform: scaleY(1.04); transform: scaleY(1.04); }
        }
        @keyframes scale {
            0%   {-ms-transform: scaleX(0.96); -webkit-transform: scaleX(0.96); -moz-transform: scaleX(0.96); transform: scaleX(0.96); }
            40%  {-ms-transform: scaleY(0.96); -webkit-transform: scaleY(0.96); -moz-transform: scaleY(0.96); transform: scaleY(0.96); }
            60%  {-ms-transform: scaleX(1.02); -webkit-transform: scaleX(1.02); -moz-transform: scaleX(1.02); transform: scaleX(1.02); }
            80%  {-ms-transform: scaleY(1.04); -webkit-transform: scaleY(1.04); -moz-transform: scaleY(1.04); transform: scaleY(1.04); }
        }
        @-moz-keyframes transparency {
        0%   {opacity: 0.2;}
          20%  {opacity: 0.4;}
          40%  {opacity: 0.6;}
          60%  {opacity: 0.4;}
          80%  {opacity: 0.8;}
          100% {opacity: 1;}

        }
        @keyframes transparency {
        0%   {opacity: 0.2;}
          20%  {opacity: 0.4;}
          40%  {opacity: 0.6;}
          60%  {opacity: 0.4;}
          80%  {opacity: 0.8;}
          100% {opacity: 1;}

        }</style>
 <defs>
  <path id="path-2" d="m22.87117,25c0,0 0.59368,4.49643 -7.40375,9.79642c-6.26901,4.07041 0.51554,16.35944 7.99743,10.86337c5.59636,-3.83309 1.7775,-9.85635 1.7775,-9.85635c0,0 -0.24245,1.50504 -3.35922,2.78076c-3.11676,1.27571 5.02674,-0.10741 0.98804,-13.5842l0,0z"/>
  <filter id="filter-3" filterUnits="objectBoundingBox" height="200%" width="200%" y="-50%" x="-50%">
   <feGaussianBlur stdDeviation="5"/>
  </filter>
  <linearGradient id="linearGradient-1" y2="100%" x2="0%" y1="0%" x1="0%">
   <stop offset="0%" stop-color="#FFFF00"/>
   <stop offset="100%" stop-color="#FF0000"/>
  </linearGradient>
 </defs>
 <g>
  <title>background</title>
  <rect fill="none" id="canvas_background" height="62" width="52" y="-1" x="-1"/>
 </g>
 <g>
  <title>Layer 1</title>
  <g fill-rule="evenodd" fill="none" id="Page-1">
   <g id="logo-bw">
    <g id="Symbols">
     <g id="Part_Sidebar">
      <g id="Sidebar">
       <g id="Logo">
        <g id="Group-59">
         <polygon points="13.894608050584793,28.84929656982422 47.89460709691048,28.84929656982422 38.94723466038704,58.84929656982422 22.841971904039383,58.84929656982422 13.894608050584793,28.84929656982422 13.894608050584793,28.84929656982422 " stroke-width="2" stroke="#000000" id="Combined-Shape"/>
         <polygon points="15.894608050584793,56.84929656982422 19.42732384800911,54.50749969482422 20.00251343846321,56.84929656982422 45.89460709691048,56.84929656982422 45.89460709691048,59.84929656982422 15.894608050584793,59.84929656982422 " fill="#000000" id="Rectangle-1367"/>
         <polygon points="45.89460709691048,56.84929656982422 42.36189225316048,54.50749969482422 41.786689311265945,56.84929656982422 15.894608050584793,56.84929656982422 15.894608050584793,59.84929656982422 45.89460709691048,59.84929656982422 " fill="#000000" id="Rectangle-1367-Copy"/>
         <g id="Path-1311">
          <use id="svg_1" x="10.894613" y="6.849251" xlink:href="#path-2" filter="url(#filter-3)" fill="black"/>
          <use id="svg_2" x="10.894613" y="6.849251" xlink:href="#path-2" fill-rule="evenodd" fill="url(#linearGradient-1)" class="path"/>
         </g>
         <polygon points="30.895019084215164,10.849294662475586 49.89949753880501,26.84929656982422 11.890548259019852,26.84929656982422 30.895019084215164,10.849294662475586 30.895019084215164,10.849294662475586 " fill="#000000" id="Combined-Shape-path"/>
        </g>
       </g>
      </g>
     </g>
    </g>
   </g>
  </g>
  <metadata transform="matrix(0.0019952315723137525,0,0,0.0019952315723137525,0,0) " id="svg_29">image/svg+xml</metadata>

  <g transform="rotate(-6.52135705947876 19.42212867736819,13.329176902770987) " stroke="null" id="svg_31">
   <g stroke="null" transform="matrix(0.094603128611239,0,0,0.0725843113554382,-942.0443563048544,-974.1189856118062) " id="svg_18">
    <path stroke="#000000" fill="#d00000" fill-rule="evenodd" stroke-width="0.833495px" id="svg_28" d="m10183.086071,13465.783292c-28.10056,7.73396 -56.90414,23.11441 -77.16658,38.00648c-20.26243,14.89205 -73.19078,52.4163 -85.27454,64.30694c-11.71598,11.52873 -25.55501,15.55018 -31.6108,29.75626c-2.33542,5.47857 15.83661,22.00519 19.39754,23.721c9.24128,4.45282 24.30452,-3.44276 31.17796,-3.91429c22.30719,-1.53031 45.16701,-4.49872 67.76035,10.79277c-4.18054,4.22051 2.45801,-0.32326 -6.08769,36.69347c-3.01352,13.05342 -9.59873,46.91908 -1.50714,53.3804c8.03941,6.41966 12.94944,-18.60581 20.93693,-14.77435c-0.004,0.00596 -0.00168,0.02106 -0.00454,0.02642c-0.00174,0.00481 -0.0039,0.02221 -0.00453,0.02643c0.00047,0.00365 -0.00612,0.02332 -0.00455,0.02642c0.00269,0.00254 0.02109,0.00283 0.02486,0.00482c0.0243,0.00724 0.07765,0.00364 0.12879,-0.00231c0.01502,0.00723 0.03464,0.0024 0.0497,0.00965c0.05646,0.02714 0.1079,0.05914 0.16488,0.08659l0.04753,-0.12728c3.78138,-0.97727 33.26276,-13.96581 60.17617,-8.74298c15.17141,2.94415 39.36936,-5.30957 53.29004,-9.61521c22.07602,-6.82803 53.06775,-12.99841 72.72796,-13.35072c14.48306,-0.25953 27.58714,-8.45898 41.52062,-9.41484c8.22039,-0.56393 0.59821,-27.06599 0.4283,-29.86559c-0.81659,-13.45508 -17.56507,-34.13032 -26.19103,-52.50369c-8.62596,-18.37338 -23.08213,-41.697 -39.00385,-59.98616c-15.92171,-18.28916 -37.40165,-41.97139 -52.52527,-49.25857c-15.12361,-7.28718 -17.9532,-13.67545 -48.45111,-5.28166z"/>
    <path opacity="0.101124" fill="#0e0000" fill-rule="evenodd" stroke-width="1px" id="svg_27" d="m10115.938791,13530.343642c-18.23272,4.41659 -33.84758,62.69141 -56.31899,72.82183c-14.69732,6.62576 -54.74904,16.69269 -51.18811,18.4085c9.24128,4.45282 24.30452,-3.44276 31.17796,-3.91429c22.30719,-1.53031 45.16701,-4.49872 67.76035,10.79277c-4.18054,4.22051 2.45801,-0.32326 -6.08769,36.69347c-3.01352,13.05342 -9.59873,46.91908 -1.50714,53.3804c8.03941,6.41966 12.94944,-18.60581 20.93693,-14.77435c-0.004,0.00596 -0.00168,0.02106 -0.00454,0.02642c-0.00174,0.00481 -0.0039,0.02221 -0.00453,0.02643c0.00047,0.00365 -0.00612,0.02332 -0.00455,0.02642c0.00269,0.00254 0.02109,0.00283 0.02486,0.00482c0.0243,0.00724 0.07765,0.00364 0.12879,-0.00231c0.01502,0.00723 0.03464,0.0024 0.0497,0.00965c0.05646,0.02714 0.1079,0.05914 0.16488,0.08659l0.04753,-0.12728c3.78138,-0.97727 33.26276,-13.96581 60.17617,-8.74298c15.17141,2.94415 39.36936,-5.30957 53.29004,-9.61521c22.07602,-6.82803 53.06775,-12.99841 72.72796,-13.35072c14.48306,-0.25953 27.58714,-8.45898 41.52062,-9.41484c8.22039,-0.56393 -51.08531,4.52064 -27.44964,-12.57577c10.48531,-7.58433 -104.98388,15.80767 -149.31404,-34.77677c-43.89537,-50.0883 -37.45534,-89.50558 -56.12656,-84.98278z"/>
    <path stroke="#000000" opacity="0.269663" fill="#000000" fill-rule="evenodd" stroke-width="0.830161" stroke-miterlimit="4" id="svg_26" d="m9990.906251,13591.632172c3.5509,2.3529 27.39796,32.51694 30.21522,30.40575c0.34058,-3.33088 -2.44066,-4.64208 -4.39708,-5.02241c2.61961,-3.32925 3.11344,-6.81056 -1.43253,-7.10965c-5.0402,-0.88997 -10.54252,-1.51433 -5.13248,-6.93595c2.49784,-3.03871 -0.16795,-8.43506 -1.70172,-11.17993c-4.02952,-2.17638 -7.06599,-6.11435 -8.71763,-8.79126"/>
    <path stroke="#000000" opacity="0.294045" fill="#000000" fill-rule="evenodd" stroke-width="0.601426px" id="svg_25" d="m10314.580471,13656.586342c-7.45124,-2.6426 -16.80117,-5.69478 -23.38958,-5.28735c-4.52499,-3.82248 -7.99822,0.88787 -11.91885,2.14156c-0.65797,-7.35971 -11.51071,3.11231 -16.29132,3.17249c-3.39452,1.94833 -1.05481,-5.80054 -7.13354,-2.85309c-7.55754,0.71399 -12.23241,1.23324 -17.83876,3.66049c-1.34666,8.01279 -13.44905,12.52661 -15.26046,3.7443c-6.59856,2.87141 -18.86884,8.44118 -18.94833,-0.64164c-10.56431,8.19396 -10.90033,15.59836 -21.21381,19.55298c0.9126,-7.09218 -22.37063,-10.90803 -25.54443,-3.46471c-6.38963,2.57308 1.32915,-9.32097 -7.90455,-6.05233c-10.40062,-3.02386 -4.34704,17.93464 -25.55362,9.36597c-11.8077,-0.37983 -5.2687,16.71929 -13.06117,23.88224c-2.0761,7.53231 -11.08359,-2.62404 -14.72934,-2.06009c0.84794,11.92658 3.40768,7.88228 0.71924,15.9966c-1.60415,10.16538 -3.75129,15.25548 7.43178,17.37239c3.62121,-4.90361 -0.18204,-2.829 0.62793,6.21747c6.45765,-1.87978 14.94635,-12.63999 14.07505,-1.58144c4.38202,-6.67329 18.25435,-10.15139 18.07994,-17.33913c7.02184,0.73709 14.90236,8.57944 20.82979,-0.95299c5.95076,-7.0412 14.50445,-10.30685 14.59427,-4.86854c7.23377,6.7565 7.95724,5.38728 15.478,3.66781c-1.93719,-8.71166 17.59935,-0.59858 7.28271,-9.27171c4.09757,-4.10343 15.18748,-6.50139 21.59622,-5.07542c5.66947,8.25419 22.94407,8.93721 25.63186,-1.74704c0.56398,-8.40429 13.68224,-11.27875 18.58724,-5.46823c8.52969,-7.4786 21.98421,3.38849 29.32409,-2.3442c-6.59758,-8.56295 9.32443,-14.15812 12.29788,-7.59298c5.84169,-3.13663 11.27804,-14.42284 17.66836,-6.34283c7.34987,-2.39523 16.32468,-5.72557 22.54222,-8.22182c4.66667,7.69315 16.74733,-0.2211 11.51054,-9.53228c-2.83483,-6.65069 9.30974,3.27444 6.00348,-5.16367c-3.76088,-9.07689 -9.04264,-21.69181 -15.51378,-21.2748c-8.8124,-2.20185 -14.03766,3.74492 -14.40344,12.16045c-0.11143,-6.14114 -10.52227,-0.15499 -15.9832,2.07193l-2.99388,0.71227l-3.57688,-2.52294"/>
    <path stroke="#000000" fill="#ffffff" fill-rule="evenodd" stroke-width="0.601426px" id="svg_24" d="m10319.507071,13658.830662c-7.45124,-2.6426 -14.35623,-3.01411 -20.94463,-2.60667c-4.52499,-3.82249 -9.89492,-2.56891 -13.81555,-1.31521c-0.65796,-7.35972 -9.61402,6.56907 -14.39462,6.62925c-3.39454,1.94834 -1.05481,-5.80052 -7.13355,-2.85309c-7.55754,0.71399 -16.31902,-3.97224 -21.92537,-1.54499c-1.34666,8.01279 -13.44905,12.52661 -15.26045,3.7443c-6.59857,2.87142 -14.78225,13.64667 -14.86172,4.56385c-12.38454,-0.5429 -17.69005,11.63327 -28.00354,15.58789c0.91261,-7.09217 -15.5809,-6.94295 -18.75471,0.50038c-6.38962,2.57308 -1.69916,-13.4386 -10.93286,-10.16996c-10.40061,-3.02386 -10.11666,17.69747 -22.52531,13.48359c-11.80769,-0.37983 -10.15859,11.35793 -17.95107,18.52087c-2.07609,7.53232 -6.19368,2.73734 -9.83944,3.30129c5.99914,8.51379 -18.39263,6.74041 -11.15151,19.87036c-1.60415,10.16538 0.84851,17.47186 12.03157,19.58876c3.62121,-4.9036 7.08893,-8.91913 7.8989,0.12733c6.45764,-1.87977 14.94635,-12.63998 14.07504,-1.58143c4.38203,-6.67329 18.25435,-10.15139 18.07994,-17.33913c7.02184,0.73709 14.90236,8.57943 20.82979,-0.953c5.95076,-7.04119 6.93352,-1.29602 7.02333,4.14228c7.23377,6.75651 15.52819,-3.62354 23.04894,-5.343c-1.93719,-8.71165 17.59935,-0.59858 7.28272,-9.27172c4.09756,-4.10342 15.18748,-6.50139 21.59622,-5.07542c5.62317,5.3341 22.94406,8.93722 25.63186,-1.74704c0.56398,-8.40429 13.68223,-11.27874 18.58724,-5.46823c8.52968,-7.47859 21.9842,3.3885 29.32408,-2.34419c-6.59758,-8.56296 9.32444,-14.15812 12.29788,-7.59298c5.84169,-3.13663 11.27804,-14.42284 17.66837,-6.34283c7.34985,-2.39523 16.32467,-5.72558 22.54222,-8.22183c4.66666,7.69315 16.74733,-0.2211 11.51053,-9.53227c-2.83483,-6.65069 9.30974,3.27444 6.00349,-5.16367c0.07385,-9.65646 -3.56311,-24.59965 -15.51378,-21.2748c-8.81241,-2.20185 -14.03766,3.74491 -14.40345,12.16044c-0.11143,-6.14113 -14.02552,-3.92353 -19.48644,-1.69661l-1.78895,0.9461l-1.27857,1.01177"/>
    <path stroke="#000000" fill="none" fill-opacity="0.75" fill-rule="evenodd" stroke-width="0.833495px" id="svg_23" d="m10104.662931,13647.888272c3.14012,-40.84748 23.78547,-59.45023 20.15126,-92.12062c-2.14808,-19.31047 -19.537,-4.67273 -13.86936,13.44173"/>
    <path opacity="0.11236" fill="#000000" fill-rule="evenodd" stroke-width="0.721572px" id="svg_22" d="m10112.961141,13703.618712c-2.07609,7.53231 -6.19368,2.73733 -9.83944,3.30128c5.99914,8.51379 -18.39263,6.74042 -11.15152,19.87037c-1.60414,10.16538 0.84852,17.47185 12.03159,19.58875c3.6212,-4.9036 7.08892,-8.91913 7.89889,0.12734c6.45764,-1.87978 14.94635,-12.63999 14.07505,-1.58144c4.38202,-6.67328 18.25434,-10.15139 18.07993,-17.33912c7.02184,0.73708 14.56587,7.34967 20.4933,-2.18275c5.95076,-7.0412 7.27,-0.06628 7.35982,5.37202c7.23377,6.75652 15.52819,-3.62353 23.04895,-5.34299c-1.9372,-8.71166 8.86645,-1.54524 7.2827,-9.27172c-1.03721,-5.06015 33.64493,-3.56205 28.65668,-8.51045c-14.90587,-14.78677 -38.19112,7.49212 -41.55999,6.0701c-3.36887,-1.42201 -7.09125,-0.55957 -2.38487,-2.71925c4.70639,-2.15967 -6.74248,1.39249 -16.27743,-1.99436c-9.53496,-3.38685 -16.51439,0.89493 -17.1513,9.34281c-7.18176,-4.46668 -7.69633,0.60685 -18.88509,3.71804c7.12945,-10.42281 -12.5996,-2.76884 -12.5996,-2.76884c0,0 3.43729,-11.42797 -2.73938,-9.91964c3.32068,-5.96418 -0.36489,-7.80159 -0.36489,-7.80159c0,0 1.81907,-5.12151 -5.9734,2.04144z"/>
    <path stroke="#000000" fill="#ffffff" fill-rule="evenodd" stroke-width="0.813602" stroke-miterlimit="4" id="svg_21" d="m9995.927871,13583.244862c-1.30168,-2.31828 -5.35751,-2.9566 -5.87941,-4.92258c0.90649,-2.28341 -2.65911,-0.62717 -3.3617,-1.88241c-4.19445,3.43361 -9.9845,4.91989 -13.09271,9.64254c1.65279,-0.36247 1.64884,-2.77858 -0.15705,-0.99615c-3.4011,1.68966 -6.68816,4.65771 -5.40926,8.89282c0.30978,2.17325 -2.42555,4.04333 0.91357,4.55805c-0.43541,3.47934 -5.65494,3.33284 -5.65806,6.4037c1.15534,3.3495 0.64712,6.84015 -2.10073,9.18954c-2.71803,2.54178 -1.59865,6.28312 -1.49958,9.37085c-1.36699,2.06531 -2.13643,3.98573 -0.33472,5.95301c0.38145,3.5482 3.32699,5.89755 3.34894,9.5893c1.24005,1.93493 3.72671,1.8152 4.99685,4.00177c3.71048,0.3154 3.98272,5.49648 7.51721,6.2151c3.03618,0.99028 6.62863,0.30362 9.36441,1.02979c2.24374,1.81902 4.81921,3.08691 7.64389,3.59772c3.5509,2.25998 4.75777,-3.36478 6.90674,-5.17595c0.11142,-2.83195 2.146,-3.05232 3.50853,-0.6677c3.101,2.10235 6.31402,-1.51811 8.53718,-3.43384c2.17349,-2.36905 4.61189,-4.42 7.03208,-6.49716c3.43593,-3.87856 4.65582,-9.42971 4.46357,-14.53502c0.34059,-3.19933 -2.63412,-3.37634 -4.59055,-3.74166c0.88459,-2.68233 3.11345,-6.54159 -1.43253,-6.82885c-2.60695,-0.6809 -8.51729,-3.59356 -5.13248,-6.66202c2.49784,-2.91871 -0.93976,-6.84771 -2.47353,-9.48419c-2.65622,-2.11406 -4.19951,-5.05895 -5.85115,-7.63014c-3.19768,-0.50952 -6.19434,-2.45275 -7.00951,-5.8451c-0.85364,-2.69404 -0.2364,-0.69903 0.03297,0.61246"/>
    <path opacity="0.095506" fill="#000000" fill-rule="evenodd" stroke-width="0.996" stroke-miterlimit="4" id="svg_20" d="m9969.387961,13618.846102c-1.6013,-1.9684 4.72141,-1.04116 4.19951,-3.00714c0.90649,-2.28339 -0.17827,-2.37846 -0.88086,-3.63371c-4.19445,3.43361 -3.20664,-4.70088 -6.31484,0.02177c1.65278,-0.36246 1.38101,-6.33357 -0.42488,-4.55114c-3.4011,1.68965 -2.68052,-5.80591 -2.68364,-2.73505c1.15534,3.3495 0.64712,6.84015 -2.10073,9.18954c-2.71803,2.54178 -1.59865,6.28312 -1.49958,9.37085c-1.36699,2.06531 -2.13643,3.98573 -0.33472,5.95301c0.38145,3.5482 3.32699,5.89755 3.34894,9.5893c1.24005,1.93493 3.72671,1.8152 4.99685,4.00177c3.71048,0.3154 3.98272,5.49648 7.51721,6.2151c3.03618,0.99028 6.62863,0.30362 9.36441,1.02979c2.24374,1.81902 4.81921,3.08691 7.64389,3.59772c3.5509,2.25998 4.75777,-3.36478 6.90674,-5.17595c0.11142,-2.83195 2.146,-3.05232 3.50853,-0.6677c3.101,2.10235 6.31402,-1.51811 8.53718,-3.43384c2.17349,-2.36905 -8.34596,0.35931 -5.92576,-1.71784c3.43592,-3.87857 -7.75248,5.41378 -7.94473,0.30847c0.34058,-3.19932 -12.37038,4.07056 -9.67851,-1.55391c0.88459,-2.68233 1.53591,-0.7479 -3.01006,-1.03517c-2.60696,-0.6809 -9.80353,-5.4936 -6.41872,-8.56206c2.49784,-2.91871 -1.34207,0.45638 -2.87584,-2.18009c-2.65622,-2.11406 -0.95965,-0.95001 -2.61129,-3.52118c-3.19768,-0.50952 -1.79179,-1.81661 -2.60696,-5.20895c-1.38336,3.98006 -0.98151,-3.60508 -0.71214,-2.29359z"/>
    <path fill="#000000" fill-opacity="0.223464" fill-rule="evenodd" stroke-width="1px" id="svg_19" d="m10106.653471,13629.361462c0,0 13.14456,-33.51164 16.30292,-46.8815c2.955,-12.50888 2.57264,-31.60315 -1.8531,-35.13721c-4.42575,-3.53406 -10.24707,2.57829 -10.86062,9.81603c-0.61354,7.23773 -1.12742,9.06164 1.8435,22.86746c1.34679,6.25851 0.67415,21.09312 -1.15695,28.09458c-1.8311,7.00146 -5.82667,22.94607 -4.27575,21.24064z"/>
   </g>
  </g>
 </g>
</svg>