<?xml version="1.0" encoding="UTF-8" standalone="no"?>
<svg width="38px" height="55px" viewBox="0 0 38 55" version="1.1" xmlns="http://www.w3.org/2000/svg" xmlns:xlink="http://www.w3.org/1999/xlink">
    <!-- Generator: Sketch 3.8.3 (29802) - http://www.bohemiancoding.com/sketch -->
    <title>Group 59</title>
    <desc>Created with Sketch.</desc>
    <defs>
        <linearGradient id="grad2" x1="0%" y1="0%" x2="0%" y2="100%">
          <stop offset="0%" style="stop-color:rgb(255,255,0);stop-opacity:1" />
          <stop offset="100%" style="stop-color:rgb(255,0,0);stop-opacity:1" />
        </linearGradient>
    </defs>
    <g id="Symbols" stroke="none" stroke-width="1" fill="none" fill-rule="evenodd">
        <g id="Part_Sidebar" transform="translate(-31.000000, -22.000000)">
            <g id="Sidebar">
                <g id="Logo">
                    <g id="Group-59" transform="translate(30.000000, 24.000000)">
                        <circle id="Oval-151" stroke="#FFFFFF" stroke-width="3" cx="20" cy="4" r="4"></circle>
                        <path d="M20.0004135,4 L39.0048912,20 L0.995935837,20 L20.0004135,4 L20.0004135,4 L20.0004135,4 Z M1,20 L39,20 L29,52 L11,52 L1,20 L1,20 L1,20 Z" id="Combined-Shape" fill="#FFFFFF"></path>
                        <polygon id="Rectangle-1367" fill="#FFFFFF" points="5 50 8.53271484 47.6582031 9.10791016 50 35 50 35 53 5 53"></polygon>
                        <polygon id="Rectangle-1367-Copy" fill="#FFFFFF" transform="translate(20.000000, 50.329102) scale(-1, 1) translate(-20.000000, -50.329102) " points="5 50 8.53271484 47.6582031 9.10791016 50 35 50 35 53 5 53"></polygon>
                        <path d="M23.3320224,18 C23.3320224,18 24.0135562,22.9042542 14.8325811,28.6849536 C7.63581192,33.1245443 15.4244074,46.5281841 24.0135558,40.5336271 C30.4381251,36.3528724 26.0541131,29.7833043 26.0541131,29.7833043 C26.0541131,29.7833043 25.7757776,31.4248565 22.1977586,32.8162767 C18.6197397,34.2076969 27.9684047,32.699125 23.3320224,18 Z" id="Path-1311" fill="url(#grad2)"></path>
                    </g>
                </g>
            </g>
        </g>
    </g>
</svg>
