<?xml version="1.0" encoding="UTF-8" standalone="no"?>
<svg width="40px" height="55px" viewBox="0 0 40 55" version="1.1" xmlns="http://www.w3.org/2000/svg" xmlns:xlink="http://www.w3.org/1999/xlink">
    <!-- Generator: Sketch 39.1 (31720) - http://www.bohemiancoding.com/sketch -->
    <title>logo-bw2</title>
    <desc>Created with Sketch.</desc>
    
    <defs>
        <linearGradient x1="0%" y1="0%" x2="0%" y2="100%" id="linearGradient-1">
            <stop stop-color="#FFFF00" offset="0%"></stop>
            <stop stop-color="#FF0000" offset="100%"></stop>
        </linearGradient>
    </defs>
    <g id="Page-1" stroke="none" stroke-width="1" fill="none" fill-rule="evenodd">
        <g id="logo-bw" transform="translate(0.000000, 2.000000)">
            <g id="Symbols">
                <g id="Part_Sidebar">
                    <g id="Sidebar">
                        <g id="Logo">
                            <g id="Group-59">
                                <circle id="Oval-151" stroke="#000000" stroke-width="3" cx="20" cy="4" r="4"></circle>
                                <polygon id="Combined-Shape" stroke="#000000" stroke-width="2" points="3 22 37 22 28.0526316 52 11.9473684 52 3 22 3 22"></polygon>
                                <polygon id="Rectangle-1367" fill="#000000" points="5 50 8.53271484 47.6582031 9.10791016 50 35 50 35 53 5 53"></polygon>
                                <polygon id="Rectangle-1367-Copy" fill="#000000" transform="translate(20.000000, 50.329102) scale(-1, 1) translate(-20.000000, -50.329102) " points="5 50 8.53271484 47.6582031 9.10791016 50 35 50 35 53 5 53"></polygon>
                                <path class="path" d="M22.8711746,25 C22.8711746,25 23.4648497,29.4964304 15.4674239,34.7964233 C9.19841355,38.8668303 15.9829559,51.1558615 23.4648494,45.6597948 C29.0612066,41.8266998 25.2423518,35.8034383 25.2423518,35.8034383 C25.2423518,35.8034383 24.9998974,37.3084837 21.8831325,38.5841973 C18.7663676,39.859911 26.9098659,38.4767876 22.8711746,25 L22.8711746,25 Z" id="Path-1311" fill="url(#linearGradient-1)"></path>

                                <polygon id="Combined-Shape-path" fill="#000000" points="20.0004135 4 39.0048912 20 0.995935837 20 20.0004135 4 20.0004135 4"></polygon>
                            </g>
                        </g>
                    </g>
                </g>
            </g>
        </g>
    </g>
</svg>
