<?xml version="1.0" encoding="UTF-8" standalone="no"?>
<svg width="40px" height="55px" viewBox="0 0 40 55" version="1.1" xmlns="http://www.w3.org/2000/svg" xmlns:xlink="http://www.w3.org/1999/xlink">
    <!-- Generator: Sketch 39.1 (31720) - http://www.bohemiancoding.com/sketch -->
    <title>logo-bw2</title>
    <desc>Created with Sketch.</desc>
    <style>
        .path {
          animation: oscillation 4s linear, transparency 2s linear, scale 1s linear;
          animation-iteration-count: infinite;
          animation-direction: alternate;
          transform-origin: bottom;
        }

        @keyframes oscillation {
        0%   {transform: rotate(-1deg)}
          20%  {transform: rotate(.5deg) ;}
          40%  {transform: rotate(-.5deg)}
          60%  {transform: rotate(1deg)}
          80%  {transform: rotate(-2deg)}
          100% { transform: rotate(1.5deg);}

        }
        @keyframes scale {
            0%   {transform: scaleX(0.96);}
            40%  {transform: scaleY(0.96);}
            60%  {transform: scaleX(1.02);}
            80%  {transform: scaleY(1.04);}
        }
        @keyframes transparency {
        0%   {opacity: 0.2;}
          20%  {opacity: 0.4;}
          40%  {opacity: 0.6;}
          60%  {opacity: 0.4;}
          80%  {opacity: 0.8;}
          100% {opacity: 1;}

        }
    </style>
    <defs>
        <linearGradient x1="0%" y1="0%" x2="0%" y2="100%" id="linearGradient-1">
            <stop stop-color="#FFFF00" offset="0%"></stop>
            <stop stop-color="#FF0000" offset="100%"></stop>
        </linearGradient>
        <path d="M22.8711746,25 C22.8711746,25 23.4648497,29.4964304 15.4674239,34.7964233 C9.19841355,38.8668303 15.9829559,51.1558615 23.4648494,45.6597948 C29.0612066,41.8266998 25.2423518,35.8034383 25.2423518,35.8034383 C25.2423518,35.8034383 24.9998974,37.3084837 21.8831325,38.5841973 C18.7663676,39.859911 26.9098659,38.4767876 22.8711746,25 L22.8711746,25 Z" id="path-2"></path>
        <filter x="-50%" y="-50%" width="200%" height="200%" filterUnits="objectBoundingBox" id="filter-3">
            <feOffset dx="0" dy="2" in="SourceAlpha" result="shadowOffsetOuter1"></feOffset>
            <feGaussianBlur stdDeviation="5" in="shadowOffsetOuter1" result="shadowBlurOuter1"></feGaussianBlur>
            <feColorMatrix values="0 0 0 0 0.970775187   0 0 0 0 0.907238424   0 0 0 0 0.109462149  0 0 0 0.534476902 0" type="matrix" in="shadowBlurOuter1"></feColorMatrix>
        </filter>
    </defs>
    <g id="Page-1" stroke="none" stroke-width="1" fill="none" fill-rule="evenodd">
        <g id="logo-bw" transform="translate(0.000000, 2.000000)">
            <g id="Symbols">
                <g id="Part_Sidebar">
                    <g id="Sidebar">
                        <g id="Logo">
                            <g id="Group-59">
                                <circle id="Oval-151" stroke="#EEEEEE" stroke-width="3" cx="20" cy="4" r="4"></circle>
                                <polygon id="Combined-Shape" stroke="#EEEEEE" stroke-width="2" points="3 22 37 22 28.0526316 52 11.9473684 52 3 22 3 22"></polygon>
                                <polygon id="Rectangle-1367" fill="#EEEEEE" points="5 50 8.53271484 47.6582031 9.10791016 50 35 50 35 53 5 53"></polygon>
                                <polygon id="Rectangle-1367-Copy" fill="#EEEEEE" transform="translate(20.000000, 50.329102) scale(-1, 1) translate(-20.000000, -50.329102) " points="5 50 8.53271484 47.6582031 9.10791016 50 35 50 35 53 5 53"></polygon>

                                <polygon id="Combined-Shape-path" fill="#EEEEEE" points="20.0004135 4 39.0048912 20 0.995935837 20 20.0004135 4 20.0004135 4"></polygon>
                            </g>
                        </g>
                    </g>
                </g>
            </g>
        </g>
    </g>
</svg>
